<svg width="137" height="124" viewBox="0 0 137 124" xmlns="http://www.w3.org/2000/svg" xmlns:xlink="http://www.w3.org/1999/xlink"><title>Group 17</title><defs><path id="a" d="M66.908 0L72 18H0L5.092 0z"/><mask id="b" x="0" y="0" width="72" height="18" fill="#fff"><use xlink:href="#a"/></mask></defs><g fill="none" fill-rule="evenodd"><path fill="#FFF" d="M27.498 47.023L2.162 94.246l1.336 22.37 124.064-1.37.5-24.853-22.869-43.98z"/><path d="M130.425 91.23c-.064-.176-22.422-44.981-22.422-44.981a2.235 2.235 0 0 0-1.999-1.237H25.575c-.846 0-1.618.479-1.998 1.237L1.236 90.999c-.163.454-.21.685-.22.919L1 114.374c0 1.236 1 2.237 2.234 2.237h125.112a2.235 2.235 0 0 0 2.234-2.237V91.999a2.74 2.74 0 0 0-.155-.77zM55.283 49.486H76.77c2.243 0-7.2 0 4.485-.001h23.37l20.107 40.274H6.85l20.107-40.273h28.327zm21.452 44.75c-1.038 5.1-5.55 8.95-10.945 8.95-5.394 0-9.906-3.85-10.945-8.95h21.89zm49.377 17.9H5.467v-17.9H50.33c1.09 7.576 7.599 13.424 15.46 13.424 7.862 0 14.37-5.848 15.46-13.424h44.862v17.9z" stroke-width="1.9" stroke="#FFF" fill="#000"/><use mask="url(#b)" xlink:href="#a" transform="translate(31 60)" stroke="#201E1E" stroke-width="4"/><path fill="#000" style="mix-blend-mode:multiply" opacity=".186" d="M10 115.639l116.778-1.076 1.151-16.472H137V124H10z"/><path d="M57.715 65.922c1.534-28.127-16.348-19.617-6.672-46.223M67.68 56.902c-9.753-30.91-.743-27.184-.743-56.601M77.059 54.078c-1.965-15.743 2.857-24.141 5.191-39.293" stroke="#000" stroke-width="1.8" opacity=".8"/><path d="M53.266 93.87s3.093 10.75 9.654 10.75c6.56 0 19.162-11.88 19.162-11.88l-28.816 1.13z" fill="#DF4A38" style="mix-blend-mode:multiply" opacity=".5"/></g></svg>