<svg width="154" height="136" viewBox="0 0 154 136" xmlns="http://www.w3.org/2000/svg" xmlns:xlink="http://www.w3.org/1999/xlink"><title>Group 12</title><defs><path id="a" d="M0 0h145v128H0z"/><mask id="d" x="0" y="0" width="145" height="128" fill="#fff"><use xlink:href="#a"/></mask><rect id="b" x="24" y="94" width="29" height="8" rx="3"/><mask id="e" x="0" y="0" width="29" height="8" fill="#fff"><use xlink:href="#b"/></mask><rect id="c" x="92" y="94" width="29" height="8" rx="3"/><mask id="f" x="0" y="0" width="29" height="8" fill="#fff"><use xlink:href="#c"/></mask></defs><g fill="none" fill-rule="evenodd"><path fill="#000" style="mix-blend-mode:multiply" opacity=".186" d="M14 10h140v126H14z"/><use stroke="#1D1D1D" mask="url(#d)" stroke-width="6" fill="#FFF" xlink:href="#a"/><path fill="#000" d="M72 2h1v126h-1z"/><path d="M23 70a1 1 0 0 1 .998-1h28.004a1 1 0 1 1 0 2H23.998A.997.997 0 0 1 23 70zm0 5a1 1 0 0 1 .998-1h28.004a1 1 0 1 1 0 2H23.998A.997.997 0 0 1 23 75zm0 4a1 1 0 0 1 .996-1h20.508a1 1 0 0 1 0 2H23.996A.995.995 0 0 1 23 79zM93 70a1 1 0 0 1 .998-1h28.004a1 1 0 1 1 0 2H93.998A.997.997 0 0 1 93 70zm0 5a1 1 0 0 1 .998-1h28.004a1 1 0 1 1 0 2H93.998A.997.997 0 0 1 93 75zm0 4a1 1 0 0 1 .996-1h20.508a1 1 0 0 1 0 2H93.996A.995.995 0 0 1 93 79z" fill="#000" opacity=".4"/><path d="M52.645 95.3c-5.422-3.037-29.822 1.485-29.822 1.485l2.706 6.26 27.116-3.425s3.597-2.304 0-4.32zM121.645 95.3c-5.422-3.037-29.822 1.485-29.822 1.485l2.706 6.26 27.116-3.425s3.597-2.304 0-4.32z" fill="#DF4A38" style="mix-blend-mode:multiply" opacity=".56"/><path d="M54.864 48.72H54.782a2.9 2.9 0 0 1-2.832 3.48H23.048a2.899 2.899 0 0 1-2.833-3.48h-.058c-.64 0-1.156-.52-1.156-1.16C19 37.325 27.298 29 37.499 29c10.12 0 18.368 8.197 18.498 18.32.015.078.023.158.023.24 0 .64-.517 1.16-1.156 1.16zm-32.395.58c0 .32.259.58.578.58H51.95a.58.58 0 0 0 0-1.16H23.047a.58.58 0 0 0-.578.58zm15.03-17.98c-8.536 0-15.552 6.664-16.146 15.08h32.291c-.594-8.416-7.61-15.08-16.145-15.08zm9.828 11.6c-.959 0-1.735-.78-1.735-1.74 0-.962.776-1.74 1.735-1.74.957 0 1.734.778 1.734 1.74 0 .96-.777 1.74-1.734 1.74zm-5.781-4.64c-.959 0-1.735-.78-1.735-1.74 0-.962.776-1.74 1.735-1.74.957 0 1.734.778 1.734 1.74 0 .96-.777 1.74-1.734 1.74zm-6.937 4.64c-.959 0-1.735-.78-1.735-1.74 0-.962.776-1.74 1.735-1.74.957 0 1.734.778 1.734 1.74 0 .96-.777 1.74-1.734 1.74zM20.156 52.2c.638 0 1.156.52 1.156 1.16 0 1.28 1.037 2.32 2.313 2.32h27.748a2.32 2.32 0 0 0 2.313-2.32c0-.64.516-1.16 1.156-1.16.638 0 1.156.52 1.156 1.16 0 2.558-2.074 4.64-4.625 4.64H23.625C21.073 58 19 55.918 19 53.36c0-.64.517-1.16 1.156-1.16z" fill="#231F1F"/><path d="M128.983 108.27a.555.555 0 0 0-.24-.54l-9.925-6.642a.501.501 0 0 0-.54-.018.566.566 0 0 0-.274.486v11.742c0 .21.115.394.292.495a.516.516 0 0 0 .558-.055l2.815-2.18 2.577 4.176a.526.526 0 0 0 .717.184l2.63-1.576a.552.552 0 0 0 .248-.348.537.537 0 0 0-.071-.421l-2.4-3.911 3.241-.944a.55.55 0 0 0 .372-.448zm-4.595.53a.56.56 0 0 0-.31.825l2.479 4.049-1.709 1.025-2.594-4.231a.528.528 0 0 0-.354-.248c-.036-.009-.062-.009-.098-.009a.519.519 0 0 0-.319.11l-2.426 1.878v-9.636l8.129 5.432-2.798.806z" fill="#000"/><use stroke="#000" mask="url(#e)" stroke-width="4" xlink:href="#b"/><use stroke="#000" mask="url(#f)" stroke-width="4" xlink:href="#c"/><path d="M108.564 39.962a.903.903 0 0 0 1.2-.43l6.316-13.376a.888.888 0 0 0-.435-1.186.908.908 0 0 0-1.2.431l-6.318 13.377a.887.887 0 0 0 .437 1.184zm3.61 0a.903.903 0 0 0 1.2-.43l6.316-13.376a.888.888 0 0 0-.437-1.186.908.908 0 0 0-1.199.431l-6.317 13.377a.887.887 0 0 0 .437 1.184zm10.992-4.252c-.07-.025-.141-.024-.213-.032a5.85 5.85 0 0 0-4.265-3.541.9.9 0 0 0-1.063.696c-.1.483.216.954.705 1.05 1.883.378 3.25 2.032 3.25 3.934 0 .493.403.892.902.892s.903-.4.903-.892c0-.034-.01-.065-.01-.099 1.402.623 1.815 1.178 1.815 1.436 0 1.211-5.734 3.568-16.244 3.568s-16.244-2.357-16.244-3.568c0-.266.441-.842 1.901-1.474a5.622 5.622 0 0 0-.096 1.03c0 .491.403.89.902.89a.897.897 0 0 0 .903-.89c0-2.065 1.629-3.82 3.709-3.997a.895.895 0 0 0 .82-.811c.18-2.055 1.955-3.665 4.044-3.665 1.148 0 2.25.489 3.021 1.34a.908.908 0 0 0 1.15.163c.385-.237.8-.409 1.233-.508a.891.891 0 0 0 .674-1.07.902.902 0 0 0-1.083-.667 5.916 5.916 0 0 0-1.144.39 5.908 5.908 0 0 0-3.851-1.43c-2.774 0-5.166 1.964-5.734 4.588-1.483.314-2.741 1.2-3.578 2.39-3.097.954-4.676 2.204-4.676 3.721 0 9.834 8.096 17.835 18.049 17.835 9.952 0 18.049-8 18.049-17.835 0-1.37-1.29-2.53-3.83-3.444zm-14.22 19.496c-8.055 0-14.742-5.83-16.01-13.44 3.18 1.806 9.621 2.739 16.01 2.739 6.387 0 12.829-.933 16.01-2.739-1.27 7.61-7.956 13.44-16.01 13.44zM111 22a1 1 0 0 1-1-1v-5a1 1 0 1 1 2 0v5a1 1 0 0 1-1 1zm-4 3a1 1 0 0 1-1-1v-8a1 1 0 1 1 2 0v8a1 1 0 0 1-1 1zm-4 0a1 1 0 0 1-1-1v-5a1 1 0 1 1 2 0v5a1 1 0 0 1-1 1z" fill="#231F1F"/><path fill="#7ED321" style="mix-blend-mode:multiply" opacity=".5" d="M19 48h39v4H19z"/><path fill="#D8CFBA" style="mix-blend-mode:multiply" opacity=".7" d="M25.62 36.09l-3.957 8.776 15.818 2.418h14.771l3.03-.556 1.547-2.78-4.077-5.44v-4.883l-11.99-3.4-5.57-.992h-3.586l-5.81.742zM19.62 57.09H54.756v-4.798l-19.994-1.067-5.57-.992h-3.586l-5.81.742z"/><path d="M95.255 38.468l2.845-1.483 7.534-8.164 4.883.371s12.924.42 7.607 3.65c-5.317 3.232 7.664 5.385 7.664 5.385l-7.728 2.353-12.242 1.112h-9.887l-.676-3.224z" fill="#CBAD95" style="mix-blend-mode:multiply" opacity=".7"/></g></svg>