<svg width="150" height="135" viewBox="0 0 150 135" xmlns="http://www.w3.org/2000/svg" xmlns:xlink="http://www.w3.org/1999/xlink"><title>Group 11</title><defs><path id="a" d="M0 0h145v128H0z"/><mask id="b" x="0" y="0" width="145" height="128" fill="#fff"><use xlink:href="#a"/></mask></defs><g fill="none" fill-rule="evenodd"><path fill="#000" style="mix-blend-mode:multiply" opacity=".186" d="M10 9h140v126H10z"/><use stroke="#1D1D1D" mask="url(#b)" stroke-width="6" fill="#FFF" xlink:href="#a"/><path fill="#000" d="M72 1h1v126h-1z"/><path d="M52.321 60.3a1.341 1.341 0 0 1-1.333-1.35v-16.2c0-2.233-1.795-4.05-4-4.05v23.238c.48-.183 1-.288 1.545-.288 2.278 0 4.159 1.744 4.28 3.972l1.034 18.91a5.085 5.085 0 0 1-1.38 3.774A5.394 5.394 0 0 1 48.533 90a5.398 5.398 0 0 1-3.936-1.694 5.085 5.085 0 0 1-1.38-3.775s1.104-19.84 1.104-19.929V37.35c0-.745.596-1.35 1.334-1.35h1.333c3.676 0 6.667 3.028 6.667 6.75v16.2c0 .745-.596 1.35-1.334 1.35zm-5.408 5.47L45.88 84.681c-.035.65.198 1.278.657 1.768 1.01 1.082 2.983 1.082 3.993.002.458-.492.691-1.12.656-1.77l-1.033-18.91c-.044-.796-.755-1.421-1.619-1.421-.865 0-1.576.624-1.62 1.42zm-15.925-9.593v5.7c1.635.528 2.847 1.976 2.944 3.745l1.033 18.91a5.081 5.081 0 0 1-1.381 3.774A5.392 5.392 0 0 1 29.651 90a5.397 5.397 0 0 1-3.935-1.694 5.08 5.08 0 0 1-1.38-3.775l1.033-18.91c.096-1.77 1.314-3.22 2.952-3.747v-5.697c-4.577-.456-8-3.221-8-6.677V37.35c0-.745.598-1.35 1.334-1.35.737 0 1.333.605 1.333 1.35V49.5c0 2.195 3.053 4.05 6.667 4.05 3.613 0 6.666-1.855 6.666-4.05V37.35c0-.745.596-1.35 1.334-1.35.737 0 1.333.605 1.333 1.35V49.5c0 3.456-3.423 6.22-8 6.677zm-1.337 8.173c-.864 0-1.575.624-1.62 1.42l-1.034 18.911a2.39 2.39 0 0 0 .656 1.768c1.011 1.082 2.984 1.082 3.994.002.458-.492.692-1.12.656-1.77l-1.032-18.91c-.044-.796-.755-1.421-1.62-1.421zm2.67-13.5a1.342 1.342 0 0 1-1.333-1.35V37.35c0-.745.597-1.35 1.333-1.35.738 0 1.334.605 1.334 1.35V49.5c0 .745-.596 1.35-1.334 1.35zm-5.333 0a1.342 1.342 0 0 1-1.333-1.35V37.35c0-.745.597-1.35 1.333-1.35.737 0 1.333.605 1.333 1.35V49.5c0 .745-.596 1.35-1.333 1.35z" fill="#231F1F"/><path fill="#DF4A38" style="mix-blend-mode:multiply" opacity=".56" d="M27.503 64.475l-1.918 6.987.306 12.749 2.909 4.327 5.875-1.918 1.668-6.18-4.327-15.457zM46.503 64.475l-1.918 6.987.306 12.749 2.909 4.327 5.875-1.918 1.668-6.18-4.327-15.457z"/><rect fill="#000" opacity=".5" x="83" y="32" width="15" height="2" rx="1"/><rect fill="#DF4A38" opacity=".5" x="115" y="23" width="20" height="2" rx="1"/><rect fill="#000" opacity=".5" x="115" y="28" width="20" height="2" rx="1"/><rect fill="#000" opacity=".5" x="115" y="32" width="15" height="2" rx="1"/><rect fill="#DF4A38" opacity=".5" x="83" y="46" width="20" height="2" rx="1"/><rect fill="#DF4A38" opacity=".5" x="115" y="46" width="20" height="2" rx="1"/><rect fill="#000" opacity=".5" x="83" y="51" width="20" height="2" rx="1"/><rect fill="#000" opacity=".5" x="115" y="51" width="20" height="2" rx="1"/><rect fill="#000" opacity=".5" x="83" y="55" width="15" height="2" rx="1"/><rect fill="#000" opacity=".5" x="115" y="55" width="15" height="2" rx="1"/><rect fill="#DF4A38" opacity=".5" x="83" y="68" width="20" height="2" rx="1"/><rect fill="#DF4A38" opacity=".5" x="115" y="68" width="20" height="2" rx="1"/><rect fill="#000" opacity=".5" x="83" y="73" width="20" height="2" rx="1"/><rect fill="#000" opacity=".5" x="115" y="73" width="20" height="2" rx="1"/><rect fill="#000" opacity=".5" x="83" y="77" width="15" height="2" rx="1"/><rect fill="#000" opacity=".5" x="115" y="77" width="15" height="2" rx="1"/><rect fill="#DF4A38" opacity=".5" x="83" y="91" width="20" height="2" rx="1"/><rect fill="#DF4A38" opacity=".5" x="115" y="91" width="20" height="2" rx="1"/><rect fill="#000" opacity=".5" x="83" y="96" width="20" height="2" rx="1"/><rect fill="#000" opacity=".5" x="115" y="96" width="20" height="2" rx="1"/><rect fill="#000" opacity=".5" x="83" y="100" width="15" height="2" rx="1"/><rect fill="#000" opacity=".5" x="115" y="100" width="15" height="2" rx="1"/><rect fill="#000" opacity=".5" x="83" y="28" width="20" height="2" rx="1"/><rect fill="#DF4A38" opacity=".5" x="83" y="23" width="20" height="2" rx="1"/></g></svg>