<svg width="153" height="136" viewBox="0 0 153 136" xmlns="http://www.w3.org/2000/svg" xmlns:xlink="http://www.w3.org/1999/xlink"><title>Group 13</title><defs><path id="a" d="M0 0h145v128H0z"/><mask id="h" x="0" y="0" width="145" height="128" fill="#fff"><use xlink:href="#a"/></mask><rect id="b" x="95" y="96" width="29" height="8" rx="3"/><mask id="i" x="0" y="0" width="29" height="8" fill="#fff"><use xlink:href="#b"/></mask><rect id="c" x="89" y="21" width="41" height="8" rx="3"/><mask id="j" x="0" y="0" width="41" height="8" fill="#fff"><use xlink:href="#c"/></mask><rect id="d" x="89" y="35" width="41" height="8" rx="3"/><mask id="k" x="0" y="0" width="41" height="8" fill="#fff"><use xlink:href="#d"/></mask><rect id="e" x="89" y="48" width="41" height="8" rx="3"/><mask id="l" x="0" y="0" width="41" height="8" fill="#fff"><use xlink:href="#e"/></mask><rect id="f" x="89" y="61" width="41" height="8" rx="3"/><mask id="m" x="0" y="0" width="41" height="8" fill="#fff"><use xlink:href="#f"/></mask><rect id="g" x="89" y="74" width="41" height="8" rx="3"/><mask id="n" x="0" y="0" width="41" height="8" fill="#fff"><use xlink:href="#g"/></mask></defs><g fill="none" fill-rule="evenodd"><path fill="#000" style="mix-blend-mode:multiply" opacity=".186" d="M13 10h140v126H13z"/><use stroke="#1D1D1D" mask="url(#h)" stroke-width="6" fill="#FFF" xlink:href="#a"/><path fill="#000" d="M72 2h1v126h-1zM114.983 110.27a.555.555 0 0 0-.24-.54l-9.925-6.642a.501.501 0 0 0-.54-.018.566.566 0 0 0-.274.486v11.742c0 .21.115.394.292.495a.516.516 0 0 0 .558-.055l2.815-2.18 2.577 4.176a.526.526 0 0 0 .717.184l2.63-1.576a.552.552 0 0 0 .248-.348.537.537 0 0 0-.071-.421l-2.4-3.911 3.241-.944a.55.55 0 0 0 .372-.448zm-4.595.53a.56.56 0 0 0-.31.825l2.479 4.049-1.709 1.025-2.594-4.231a.528.528 0 0 0-.354-.248c-.036-.009-.062-.009-.098-.009a.519.519 0 0 0-.319.11l-2.426 1.878v-9.636l8.129 5.432-2.798.806z"/><path d="M123.645 97.3c-5.422-3.037-29.822 1.485-29.822 1.485l2.706 6.26 27.116-3.425s3.597-2.304 0-4.32z" fill="#DF4A38" style="mix-blend-mode:multiply" opacity=".56"/><use stroke="#000" mask="url(#i)" stroke-width="4" xlink:href="#b"/><use stroke="#000" mask="url(#j)" stroke-width="2" xlink:href="#c"/><path fill="#000" d="M99 25h21v1H99z"/><use stroke="#000" mask="url(#k)" stroke-width="2" xlink:href="#d"/><path fill="#000" d="M97 39h26v1H97z"/><use stroke="#000" mask="url(#l)" stroke-width="2" xlink:href="#e"/><path fill="#000" d="M104 52h11v1h-11z"/><use stroke="#000" mask="url(#m)" stroke-width="2" xlink:href="#f"/><path fill="#000" d="M99 65h21v1H99z"/><use stroke="#000" mask="url(#n)" stroke-width="2" xlink:href="#g"/><path fill="#000" d="M99 78h21v1H99z"/><path d="M37.094 63.094c.159.074.327.108.493.108.442 0 .863-.244 1.062-.662l8.191-17.197a1.138 1.138 0 0 0-.565-1.524 1.182 1.182 0 0 0-1.556.554L36.527 61.57a1.136 1.136 0 0 0 .567 1.523zm4.68 0c.16.074.328.108.494.108.441 0 .863-.244 1.062-.662l8.191-17.197a1.137 1.137 0 0 0-.566-1.524 1.181 1.181 0 0 0-1.555.554L41.208 61.57a1.136 1.136 0 0 0 .566 1.523zm14.254-5.467c-.09-.032-.183-.031-.275-.042a7.57 7.57 0 0 0-5.532-4.552 1.166 1.166 0 0 0-1.378.896c-.13.62.28 1.225.915 1.35 2.44.485 4.214 2.611 4.214 5.057 0 .633.523 1.147 1.17 1.147a1.16 1.16 0 0 0 1.17-1.147c0-.043-.012-.083-.012-.127 1.818.8 2.353 1.515 2.353 1.846 0 1.558-7.436 4.587-21.064 4.587-13.63 0-21.065-3.03-21.065-4.587 0-.341.573-1.082 2.466-1.895-.08.43-.125.872-.125 1.323 0 .633.523 1.146 1.17 1.146.646 0 1.17-.513 1.17-1.146 0-2.653 2.113-4.909 4.81-5.137a1.156 1.156 0 0 0 1.065-1.044c.232-2.642 2.533-4.712 5.243-4.712 1.488 0 2.917.629 3.917 1.724.38.417 1.01.503 1.491.209a5.32 5.32 0 0 1 1.599-.653c.63-.143 1.021-.76.874-1.377a1.17 1.17 0 0 0-1.404-.857 7.717 7.717 0 0 0-1.483.503 7.7 7.7 0 0 0-4.994-1.84c-3.598 0-6.699 2.525-7.436 5.899-1.923.404-3.554 1.543-4.64 3.073-4.015 1.227-6.063 2.834-6.063 4.784 0 12.644 10.498 22.931 23.405 22.931 12.905 0 23.404-10.287 23.404-22.93 0-1.763-1.671-3.253-4.965-4.43zm-18.44 25.066c-10.445 0-19.115-7.495-20.76-17.279 4.123 2.321 12.476 3.52 20.76 3.52 8.283 0 16.636-1.199 20.76-3.52-1.645 9.784-10.315 17.279-20.76 17.279zM40.253 40a1.29 1.29 0 0 1-1.296-1.286v-6.428c0-.71.58-1.286 1.296-1.286.716 0 1.297.576 1.297 1.286v6.428c0 .71-.581 1.286-1.297 1.286zm-5.187 3.857a1.29 1.29 0 0 1-1.296-1.286V32.286c0-.71.58-1.286 1.296-1.286.716 0 1.297.576 1.297 1.286V42.57c0 .71-.58 1.286-1.297 1.286zm-5.187 0a1.29 1.29 0 0 1-1.296-1.286v-6.428c0-.71.58-1.286 1.296-1.286.716 0 1.297.576 1.297 1.286v6.428c0 .71-.58 1.286-1.297 1.286z" fill="#231F1F"/><path d="M22.255 61.468l2.845-1.483 7.534-8.164 4.883.371s12.924.42 7.607 3.65c-5.317 3.232 7.664 5.385 7.664 5.385L45.06 63.58l-12.242 1.112h-9.887l-.676-3.224z" fill="#CBAD95" style="mix-blend-mode:multiply" opacity=".7"/></g></svg>