<svg width="31" height="38" viewBox="0 0 31 38" xmlns="http://www.w3.org/2000/svg"><title>Shape</title><path d="M17.013 17a1 1 0 1 0 0-2h-2v-2a1 1 0 0 0-2.001 0v2H9.01v-2a1 1 0 1 0-2.001 0v2H5.008a1 1 0 1 0 0 2h2.001v4H5.008a1 1 0 1 0 0 2h2.001v2a1 1 0 0 0 2.001 0v-2h4.002v2a1 1 0 1 0 2.001 0v-2h2a1 1 0 1 0 0-2h-2v-4h2zM9.01 17h4.002v4H9.01v-4zm20.249-1.266a5.855 5.855 0 0 0-4.171-1.731 5.86 5.86 0 0 0-3.072.862V11c0-6.065-4.937-11-11.005-11C4.943 0 .006 4.935.006 11v23c0 2.748 5.705 4 11.005 4 5.3 0 11.005-1.252 11.005-4v-2.589l7.243-7.329a5.918 5.918 0 0 0 0-8.348zm-1.42 6.939l-7.535 7.624a.998.998 0 0 0-.289.703l.002 2.985C19.863 34.54 16.863 36 11.011 36s-8.852-1.46-9.004-2V11c0-4.962 4.039-9 9.004-9s9.004 4.038 9.004 9v6.051a1.001 1.001 0 0 0 1.709.706l.609-.61c1.471-1.474 4.038-1.474 5.509-.001a3.915 3.915 0 0 1-.003 5.527z" fill="#DF4A38" fill-rule="evenodd"/></svg>