<svg width="54" height="37" viewBox="0 0 54 37" xmlns="http://www.w3.org/2000/svg"><title>motorbike-delivery</title><g fill="#DF4A38" fill-rule="evenodd"><path d="M11.412 18.45c-5.084 0-9.22 4.139-9.22 9.225 0 5.086 4.136 9.223 9.22 9.223 5.084 0 9.22-4.137 9.22-9.223 0-5.086-4.136-9.224-9.22-9.224zm0 16.793c-4.172 0-7.566-3.395-7.566-7.568 0-4.174 3.394-7.569 7.566-7.569s7.566 3.396 7.566 7.569-3.394 7.568-7.565 7.568z"/><path d="M11.412 24.8a2.877 2.877 0 0 0-2.873 2.875 2.876 2.876 0 0 0 2.873 2.873 2.876 2.876 0 0 0 2.873-2.873 2.877 2.877 0 0 0-2.873-2.874z"/><path d="M44.719 18.45a9.17 9.17 0 0 0-3.194.572l-2.771-5.985c.405.24.877.377 1.38.377.457 0 .827-.37.827-.827V8.789a.827.827 0 0 0-.827-.827 2.73 2.73 0 0 0-2.684 2.259l-1.963-4.239a.827.827 0 0 0-.75-.48h-2.468a.827.827 0 0 0 0 1.656h1.94l1.193 2.577a.833.833 0 0 0-.095.128l-7.93 13.223h-.995a.571.571 0 0 1-.57-.57v-5.89a4.454 4.454 0 0 0-4.448-4.45H14.97V.867a.827.827 0 0 0-.827-.827H.827A.827.827 0 0 0 0 .868v15.23c0 .458.37.828.827.828h4.41a12.419 12.419 0 0 0-4.564 4.546.828.828 0 0 0 1.432.829 10.785 10.785 0 0 1 9.307-5.375c5.925 0 10.745 4.822 10.745 10.75 0 .456.37.827.827.827h8.573c.292 0 .561-.154.71-.404l6.555-10.976 1.21 2.613a9.228 9.228 0 0 0-4.533 7.939c0 5.086 4.136 9.223 9.22 9.223 5.084 0 9.22-4.137 9.22-9.223 0-5.086-4.136-9.224-9.22-9.224zM1.654 12.177v-6.94h11.662v6.94H1.654zm11.662-10.48V3.58H1.654V1.695h11.662zm24.57 13.77l-6.798 11.382h-7.305c-.427-6.456-5.812-11.577-12.37-11.577H1.653v-1.44h19.71a2.797 2.797 0 0 1 2.794 2.794v5.89c0 1.228.998 2.226 2.224 2.226h1.464c.29 0 .56-.153.71-.402l7.678-12.806 1.756 3.793a.835.835 0 0 0-.105.14zm6.833 19.777c-4.172 0-7.566-3.395-7.566-7.568a7.57 7.57 0 0 1 3.578-6.429l2.012 4.345a2.866 2.866 0 0 0-.897 2.084 2.876 2.876 0 0 0 2.873 2.873 2.876 2.876 0 0 0 2.872-2.873 2.877 2.877 0 0 0-3.37-2.83l-1.998-4.314a7.527 7.527 0 0 1 2.496-.425c4.172 0 7.566 3.395 7.566 7.569 0 4.173-3.394 7.568-7.566 7.568z"/></g></svg>