<svg width="32" height="42" viewBox="0 0 32 42" xmlns="http://www.w3.org/2000/svg"><title>Lettuce</title><path d="M30.754 20.035c.114.616.172 1.23.172 1.832a10.15 10.15 0 0 1-3.25 7.455c-.471 3.637-3.298 6.44-6.873 6.88l-.46 2.317c-.081 1.737-1.91 3.081-4.23 3.081-2.321 0-4.15-1.344-4.229-3.08l-.46-2.318c-3.576-.44-6.403-3.243-6.874-6.88a10.15 10.15 0 0 1-3.25-7.455c0-.602.058-1.216.172-1.832a9.07 9.07 0 0 1-1.23-4.568 9.05 9.05 0 0 1 5.11-8.178C7.134 2.91 11.402 0 16.114 0c4.712 0 8.979 2.91 10.76 7.289 3.12 1.502 5.11 4.664 5.11 8.178a9.07 9.07 0 0 1-1.23 4.568zM25.637 9.067a1.063 1.063 0 0 1-.587-.619c-1.367-3.777-4.959-6.315-8.937-6.315-3.98 0-7.57 2.538-8.936 6.315-.102.28-.314.505-.587.619a6.92 6.92 0 0 0-4.232 6.4c0 1.347.388 2.656 1.12 3.785.157.242.21.54.146.823a8.115 8.115 0 0 0-.208 1.792 8.016 8.016 0 0 0 2.825 6.115c.217.184.352.449.373.735.228 3.038 2.682 5.364 5.706 5.411a1.06 1.06 0 0 1 1.021.858l.635 3.205c.014.07.021.139.021.209 0 .435.824 1.067 2.116 1.067 1.291 0 2.116-.632 2.116-1.067 0-.07.008-.14.02-.21l.637-3.204a1.06 1.06 0 0 1 1.02-.858c3.024-.047 5.477-2.373 5.705-5.411.023-.286.157-.55.374-.735a8.018 8.018 0 0 0 2.824-6.115c0-.584-.07-1.186-.208-1.792-.063-.283-.01-.58.147-.823a6.945 6.945 0 0 0 1.12-3.785 6.921 6.921 0 0 0-4.231-6.4zM21.093 21.02a1.053 1.053 0 0 1-1.496 0 1.072 1.072 0 0 1 0-1.508l4.233-4.267a1.05 1.05 0 0 1 1.496 0 1.074 1.074 0 0 1 0 1.508l-4.233 4.267zM16.113 32a1.062 1.062 0 0 1-1.058-1.067V9.6c0-.589.473-1.067 1.058-1.067.584 0 1.058.478 1.058 1.067v21.333c0 .59-.474 1.067-1.058 1.067zm-4.232-10.667a1.05 1.05 0 0 1-.748-.312L6.9 16.754a1.072 1.072 0 0 1 0-1.508 1.05 1.05 0 0 1 1.496 0l4.232 4.267a1.072 1.072 0 0 1 0 1.508 1.05 1.05 0 0 1-.748.312z" fill="#DF4A38" fill-rule="evenodd"/></svg>