<svg width="197" height="54" viewBox="0 0 197 54" xmlns="http://www.w3.org/2000/svg" xmlns:xlink="http://www.w3.org/1999/xlink"><title>Tiffinity Logo</title><defs><path id="a" d="M0 0h197v50H0z"/><mask id="b" x="0" y="0" width="197" height="50" fill="#fff"><use xlink:href="#a"/></mask></defs><g fill="none" fill-rule="evenodd"><use stroke="#201E1E" mask="url(#b)" stroke-width="8" xlink:href="#a"/><g fill="#201E1E"><path d="M25.855 34.722V17.768h6.083V15.15H16.724v2.618h6.096v16.954h3.035zm29.334 0V26.53h6.32v-2.564h-6.32v-6.198h9.173V15.15H52.155v19.572h3.034zm20.398 0V26.53h6.32v-2.564h-6.32v-6.198h9.173V15.15H72.553v19.572h3.034zm32.505 0V20.304h.122l10.134 14.418h2.737V15.15h-2.954v14.432h-.108L107.889 15.15h-2.75v19.572h2.953zm42.327 0V17.768h6.083V15.15h-15.214v2.618h6.096v16.954h3.035zm22.58 0v-8.016l6.895-11.556h-3.36l-4.985 8.64h-.095l-4.986-8.64h-3.387l6.882 11.556v8.016h3.035zM44.293 24.87c0 .592-2.247.738-2.247 1.332 0 4.127.701 5.592 0 7.764-.701 2.17-2.507 0-2.507 0V15.278h1.514s3.24 6.543 3.24 9.591zM95.604 21.291h.653l-.081-6.013h.318s.582 4.28.582 6.18c0 1.9-1.73 3.325-1.73 4.574 0 1.25.947 4.976.324 7.173-.623 2.198-1.89 2.4-2.571 0-.681-2.4.167-5.946.167-7.173 0-1.227-1.703-2.656-1.703-4.574 0-2.677.69-6.18.69-6.18h.318l-.219 6.013.747.002.403-6.015h.376l.162 6.013h.665l.143-6.013h.36l.396 6.013zM131.456 34.236h-.014c-.123-.007-1.024-.102-1.167-1.495-.284-2.778-.113-1.476.09-7.261-.203-3.403-2.384-3.324-2.384-5.802 0-2.479 1.037-3.718 1.8-4.406a2.746 2.746 0 0 1 1.668-.689h.007c.117.004.953.05 1.661.689.763.688 1.8 1.927 1.8 4.406 0 2.478-2.18 2.4-2.406 5.802.225 5.785.403 4.502.112 7.261-.147 1.392-1.044 1.488-1.167 1.495z"/></g><path fill="#201F1F" d="M143 42h40v12h-40z"/><path d="M156.978 46.685c0 .254-.057.488-.171.7-.114.213-.303.39-.567.53v.018c.147.05.28.113.402.19a1.235 1.235 0 0 1 .514.64c.049.135.073.286.073.453 0 .143-.023.297-.068.461a1.446 1.446 0 0 1-.24.477 1.858 1.858 0 0 1-.457.424c-.19.129-.43.232-.72.308a3.627 3.627 0 0 1-.528.085c-.105.01-.222.018-.351.022-.13.005-.274.007-.435.007h-1.71v-5.88h2.044c.436 0 .788.044 1.054.132.2.064.372.149.519.253.146.104.267.22.362.347a1.37 1.37 0 0 1 .28.833zm-3.181 1.757V50.1h.703c.187 0 .348-.005.483-.015.135-.01.25-.027.347-.05.15-.033.274-.076.374-.13.1-.055.18-.116.242-.185a.621.621 0 0 0 .131-.229.878.878 0 0 0 .04-.265.706.706 0 0 0-.136-.431c-.091-.123-.233-.215-.426-.277a1.549 1.549 0 0 0-.3-.057 4.462 4.462 0 0 0-.439-.018h-1.02zm.97-.9c.294 0 .512-.03.656-.088a.686.686 0 0 0 .345-.28.786.786 0 0 0 .103-.402.745.745 0 0 0-.119-.415c-.079-.121-.214-.211-.404-.27a1.489 1.489 0 0 0-.277-.05 4.15 4.15 0 0 0-.391-.016h-.883v1.52h.97zm5.037 2.557h2.892V51h-3.969v-5.88h3.81v.901h-2.733v1.52h2.347v.901h-2.347V50.1zm6.838.901h-1.077v-4.979h-1.898v-.9h4.87v.9h-1.895V51zm6.495-1.499h-2.214L170.347 51H169.2l2.333-5.88h.985L174.85 51h-1.138l-.576-1.499zm-1.116-2.966c-.205.615-.388 1.13-.55 1.543l-.201.523h1.52l-.202-.523c-.161-.416-.344-.93-.55-1.543h-.017z" fill="#FFF"/></g></svg>